<?xml version="1.0" encoding="UTF-8" standalone="no"?>
<!DOCTYPE svg PUBLIC "-//W3C//DTD SVG 1.1//EN" "http://www.w3.org/Graphics/SVG/1.1/DTD/svg11.dtd">
<svg width="100%" height="100%" viewBox="0 0 16 16" version="1.1" xmlns="http://www.w3.org/2000/svg" xmlns:xlink="http://www.w3.org/1999/xlink" xml:space="preserve" xmlns:serif="http://www.serif.com/" style="fill-rule:evenodd;clip-rule:evenodd;stroke-linejoin:round;stroke-miterlimit:2;">
    <path d="M11,6C11,7.646 9.646,9 8,9C6.354,9 5,7.646 5,6C5,4.354 6.354,3 8,3C9.646,3 11,4.354 11,6Z" style="fill:rgb(37,78,88);fill-rule:nonzero;"/>
    <path d="M2,0C0.903,0 -0,0.903 0,2L0,14C0,15.097 0.903,16 2,16L14,16C15.097,16 16,15.097 16,14L16,2C16,0.903 15.097,0 14,0L2,0ZM14,1C14.549,1 15,1.451 15,2L15,14C15,14.549 14.549,15 14,15L14,14C14,13 13,10 8,10C3,10 2,13 2,14L2,15C1.451,15 1,14.549 1,14L1,2C1,1.451 1.451,1 2,1L14,1Z" style="fill:rgb(37,78,88);fill-rule:nonzero;"/>
</svg>
